<?xml version="1.0" encoding="utf-8"?>
<!-- Generator: Adobe Illustrator 15.1.0, SVG Export Plug-In . SVG Version: 6.00 Build 0)  -->
<!DOCTYPE svg PUBLIC "-//W3C//DTD SVG 1.1//EN" "http://www.w3.org/Graphics/SVG/1.1/DTD/svg11.dtd">
<svg version="1.1" id="Layer_1" xmlns="http://www.w3.org/2000/svg" xmlns:xlink="http://www.w3.org/1999/xlink" x="0px" y="0px"
	 width="255.565px" height="235.557px" viewBox="0 0 255.565 235.557" style="enable-background:new 0 0 255.565 235.557;"
	 xml:space="preserve">
<style type="text/css">
<![CDATA[
	.st0{fill:#583519;}
	.st1{fill-rule:evenodd;clip-rule:evenodd;fill:#FFE400;}
]]>
</style>
<g>
	<g>
		<path class="st1" d="M47.424,188.228l0.241-55.082c-0.312-1.547,0.614-3.715-4.959-6.492c-5.573-2.779-11.137,2.799-11.137,2.799
			c-4.944,4.957-8.036,7.436-17.321,6.52c-9.284-0.918-16.414-11.738-13.645-23.811c2.77-12.073,18.551-13.33,25.053-10.552
			c6.501,2.776,5.887,6.182,12.388,8.65c6.501,2.467,9.899-2.798,9.899-2.798l-0.073-59.104l64.771-0.067
			c4.643-0.006,6.707-2.912,7.729-6.508c0.617-2.168,1.428-5.428-3.725-9.589c-6.506-5.253-7.447-12.92-7.447-15.772
			c0-3.237,4.313-16.406,16.381-16.421c18.26-0.022,20.129,11.425,20.443,16.065c0.314,4.642-0.299,7.736-5.553,14.242
			c-4.045,5.01-4.33,0.934-4.939,8.67c-0.609,7.737,6.199,8.967,6.199,8.967l66.32-0.07l-0.625-0.621l0.139,56.319
			c0,0,1.254,6.804,8.988,6.167c7.734-0.639,3.658-0.908,8.652-4.973c6.486-5.276,9.578-5.902,14.221-5.604
			s16.096,2.124,16.141,20.384c0.029,12.068-12.826,15.646-16.359,16.439c-2.783,0.627-10.523-0.902-15.801-7.387
			c-4.18-5.137-7.438-4.314-9.602-3.691c-3.592,1.037-6.49,3.111-6.479,7.754l0.133,54.771l-69.104,0.145
			c0,0-5.252,3.416-2.762,9.908c2.492,6.492,5.895,5.865,8.695,12.357c2.801,6.49,1.602,22.275-10.459,25.09
			c-12.063,2.814-22.91-4.275-23.861-13.557s1.518-12.383,6.457-17.346c0,0,5.557-5.584,2.758-11.146s-4.963-4.629-6.512-4.936
			l-65.081,0.445"/>
	</g>
	<g>
		<path class="st0" d="M81.536,106.756c0-3.32-4.117-1.859-4.117-4.648c0-1.771,1.948-2.169,3.32-2.169
			c1.107,0,2.169,0.089,3.276,0.089c6.418,0,10.314-0.62,12.173-0.62c6.021,0,11.819,3.497,11.819,10.137
			c0,6.596-5.578,10.137-11.73,10.137c-1.328,0-2.656-0.221-3.852-0.221c-0.531,0-0.708,0.221-0.708,0.708v2.567
			c0.133,5.533,3.364,3.231,3.364,5.799c0,2.878-6.374,3.011-8.366,3.011c-1.859,0-8.411-0.045-8.411-2.922
			c0-2.435,3.231-0.93,3.231-4.56V106.756z M93.399,104.631c-1.727,0-1.683,0.531-1.683,1.416v6.641
			c0,0.929-0.398,1.947,1.992,1.947c2.921,0,4.072-2.213,4.072-4.913C97.781,106.933,96.364,104.631,93.399,104.631z"/>
		<path class="st0" d="M122.275,123.134c0,0.797-0.044,2.258,0.177,2.966c0.487,1.594,2.479,0.841,2.479,2.7
			c0,2.966-5.4,2.745-7.304,2.745c-1.992,0-8.189,0.221-8.189-2.922c0-1.55,1.903-0.975,2.435-2.612
			c0.575-1.814,0.575-7.348,0.575-9.517c0-1.727,0.089-5.047-0.31-7.038c-0.664-3.276-3.275-2.125-3.275-4.648
			c0-3.851,11.509-4.78,12.128-4.78c1.506,0,1.859,0.974,1.859,2.302c0,1.018-0.575,5.887-0.575,12.217V123.134z"/>
		<path class="st0" d="M148.196,120.478c0,7.791,2.656,3.542,2.656,5.932c0,2.523-3.453,5.269-6.686,5.269
			c-3.496,0-3.584-2.258-4.691-2.258c-0.531,0-1.107,0.575-2.08,1.106c-0.975,0.575-2.303,1.151-4.338,1.151
			c-3.674,0-7.349-1.948-7.349-6.331c0-3.143,3.011-7.038,10.802-7.038c1.371,0,1.99,0.089,1.99-1.505
			c0-1.461-0.043-4.515-2.08-4.515c-2.656,0-2.922,4.78-6.861,4.78c-1.416,0-2.479-1.018-2.479-2.435
			c0-3.763,7.48-6.197,11.686-6.197c2.523,0,9.43,0.974,9.43,7.614V120.478z M134.917,124.374c0,1.151,0.619,2.391,1.902,2.391
			c1.682,0,1.814-1.815,1.814-3.143c0-0.975,0.045-2.081-1.193-2.081C135.935,121.541,134.917,122.958,134.917,124.374z"/>
		<path class="st0" d="M169.649,127.339c-2.168,5.888-5.002,11.643-12.217,11.643c-3.188,0-6.949-1.638-6.949-5.313
			c0-2.213,1.682-4.072,3.939-4.072c4.117,0,2.965,4.692,4.781,4.692c1.193,0,1.725-1.151,1.725-2.169
			c0-1.24-0.885-2.922-1.416-4.028l-6.197-12.97c-0.84-1.771-3.363-1.24-3.363-3.276c0-1.327,0.797-3.275,10.137-3.275
			c1.682,0,5.666,0.177,5.666,2.7c0,1.195-1.018,1.55-1.018,2.611c0,1.683,1.947,4.781,2.699,4.781c1.328,0,2.258-3.055,2.258-4.117
			c0-1.991-1.416-1.858-1.416-3.364c0-2.346,4.16-2.611,5.754-2.611c1.461,0,4.736,0.222,4.736,2.258
			c0,2.611-2.656,1.461-4.205,4.072c-0.975,1.549-1.682,3.497-2.303,5.224L169.649,127.339z"/>
	</g>
</g>
</svg>
